<?xml version="1.0" encoding="UTF-8" standalone="no"?>
<svg
   xmlns:dc="http://purl.org/dc/elements/1.1/"
   xmlns:cc="http://creativecommons.org/ns#"
   xmlns:rdf="http://www.w3.org/1999/02/22-rdf-syntax-ns#"
   xmlns:svg="http://www.w3.org/2000/svg"
   xmlns="http://www.w3.org/2000/svg"
   xmlns:sodipodi="http://sodipodi.sourceforge.net/DTD/sodipodi-0.dtd"
   xmlns:inkscape="http://www.inkscape.org/namespaces/inkscape"
   version="1.0"
   width="300pt"
   height="300pt"
   viewBox="0 0 300 300"
   preserveAspectRatio="xMidYMid meet"
   id="svg80"
   sodipodi:docname="venn_template.svg"
   inkscape:version="1.0.2 (e86c870879, 2021-01-15)">
  <defs
     id="defs84" />
  <sodipodi:namedview
     pagecolor="#ffffff"
     bordercolor="#666666"
     borderopacity="1"
     objecttolerance="10"
     gridtolerance="10"
     guidetolerance="10"
     inkscape:pageopacity="0"
     inkscape:pageshadow="2"
     inkscape:window-width="1340"
     inkscape:window-height="723"
     id="namedview82"
     showgrid="false"
     inkscape:zoom="0.88073395"
     inkscape:cx="14.121403"
     inkscape:cy="166.63771"
     inkscape:window-x="10"
     inkscape:window-y="29"
     inkscape:window-maximized="0"
     inkscape:current-layer="svg80"
     inkscape:document-rotation="0" />
  <metadata
     id="metadata74">
Created by potrace 1.16, written by Peter Selinger 2001-2019
<rdf:RDF>
  <cc:Work
     rdf:about="">
    <dc:format>image/svg+xml</dc:format>
    <dc:type
       rdf:resource="http://purl.org/dc/dcmitype/StillImage" />
    <dc:title />
  </cc:Work>
</rdf:RDF>
</metadata>
  <g
     transform="matrix(-0.1,0,0,0.1,265.5,41.032186)"
     fill="#000000"
     stroke="none"
     id="g78">
    <path
       d="m 1045,2171 c -324,-52 -574,-290 -640,-607 -8,-40 -15,-86 -15,-101 0,-22 -9,-34 -45,-56 C 196,1313 68,1128 25,948 6,866 6,674 25,592 56,461 149,300 244,212 476,-1 804,-56 1091,72 c 65,29 67,29 100,13 63,-33 173,-65 261,-76 265,-34 549,89 703,306 56,79 110,193 130,277 19,82 19,274 0,356 -43,180 -171,365 -320,459 -36,22 -45,34 -45,56 0,48 -29,171 -56,238 -29,70 -94,174 -146,231 -90,98 -241,188 -375,222 -75,20 -228,28 -298,17 z m 285,-47 c 243,-55 456,-260 528,-509 19,-67 36,-155 29,-155 -2,0 -39,13 -83,29 -193,70 -398,63 -584,-21 l -64,-29 -61,27 c -190,86 -395,94 -589,23 -44,-16 -81,-29 -83,-29 -7,0 10,88 29,155 57,199 198,366 383,455 162,78 314,94 495,54 z M 935,1484 c 39,-8 97,-27 130,-42 l 59,-28 -35,-22 C 1045,1365 944,1261 901,1197 835,1100 790,975 775,848 c -3,-32 -9,-58 -11,-58 -3,0 -30,19 -61,43 -151,113 -261,315 -279,510 l -6,73 58,26 c 145,64 289,78 459,42 z m 774,0 c 36,-8 92,-27 124,-41 l 59,-27 -6,-73 c -18,-195 -128,-397 -279,-510 -31,-24 -58,-43 -61,-43 -2,0 -8,26 -11,58 -15,127 -60,252 -126,349 -43,63 -144,168 -187,195 l -35,21 44,23 c 131,66 314,84 478,48 z M 390,1360 c 0,-51 30,-181 57,-245 56,-132 171,-274 277,-341 l 43,-27 16,-97 c 19,-118 54,-208 117,-303 47,-72 154,-182 199,-207 l 25,-13 -48,-24 C 993,61 886,38 770,38 363,38 40,362 40,770 c 0,238 109,452 304,598 38,29 46,28 46,-8 z m 827,-8 c 167,-133 283,-351 283,-534 v -59 l -47,-20 c -89,-38 -193,-60 -293,-60 -114,0 -174,11 -272,48 l -73,28 -3,55 c -7,129 70,323 175,439 63,71 147,141 168,141 7,0 35,-17 62,-38 z m 770,0 C 2210,1175 2316,881 2254,607 2195,346 1984,128 1724,59 1570,19 1364,37 1234,103 l -48,24 25,13 c 13,7 53,41 88,74 131,125 204,270 231,454 12,77 12,78 55,106 107,67 222,209 278,341 27,64 57,194 57,245 0,16 4,30 9,30 5,0 31,-17 58,-38 z M 913,683 c 177,-62 384,-50 570,31 23,11 23,-28 -3,-128 -36,-141 -121,-278 -236,-377 -85,-73 -93,-73 -179,1 -114,98 -199,235 -235,376 -26,100 -26,139 -2,128 9,-4 48,-18 85,-31 z"
       id="path76" />
  </g>
  <rect
     style="fill:none;fill-rule:evenodd;stroke:#000000;stroke-width:2.22808;stroke-miterlimit:4;stroke-dasharray:none;stroke-opacity:1"
     id="rect90"
     width="297.59692"
     height="297.72375"
     x="1.1305633"
     y="1.1177825"
     transform="skewX(0.05750983)" />
  <text
     xml:space="preserve"
     style="font-style:normal;font-variant:normal;font-weight:normal;font-stretch:normal;font-size:30px;line-height:1.25;font-family:Z003;-inkscape-font-specification:Z003;fill:#000000;fill-opacity:1;stroke:none;stroke-width:0.75"
     x="11.978707"
     y="286.6524"
     id="text917"><tspan
       sodipodi:role="line"
       id="tspan915"
       x="11.978707"
       y="286.6524"
       style="font-style:normal;font-variant:normal;font-weight:normal;font-stretch:normal;font-family:Z003;-inkscape-font-specification:Z003;stroke-width:0.75">U</tspan></text>
  <text
     xml:space="preserve"
     style="font-style:normal;font-weight:normal;font-size:30px;line-height:1.25;font-family:sans-serif;fill:#000000;fill-opacity:1;stroke:none;stroke-width:0.75"
     x="9.219655"
     y="117.77474"
     id="text921"><tspan
       sodipodi:role="line"
       id="tspan919"
       x="9.219655"
       y="117.77474"
       style="stroke-width:0.75">A</tspan></text>
  <text
     xml:space="preserve"
     style="font-style:normal;font-weight:normal;font-size:30px;line-height:1.25;font-family:sans-serif;fill:#000000;fill-opacity:1;stroke:none;stroke-width:0.75"
     x="274.03635"
     y="117.7308"
     id="text925"><tspan
       sodipodi:role="line"
       id="tspan923"
       x="274.03635"
       y="117.7308"
       style="stroke-width:0.75">B</tspan></text>
  <text
     xml:space="preserve"
     style="font-style:normal;font-weight:normal;font-size:30px;line-height:1.25;font-family:sans-serif;fill:#000000;fill-opacity:1;stroke:none;stroke-width:0.75"
     x="223.04997"
     y="242.21312"
     id="text929"><tspan
       sodipodi:role="line"
       id="tspan927"
       x="223.04997"
       y="242.21312"
       style="stroke-width:0.75">C</tspan></text>
</svg>
